<svg xmlns="http://www.w3.org/2000/svg" height="620pt" version="1.1" viewBox="0 -10 620 620" width="620pt">
<g id="surface1">
<path d="M 470 460 C 464.476562 460 460 464.476562 460 470 L 460 570 C 460 575.523438 455.523438 580 450 580 L 170 580 C 164.476562 580 160 575.523438 160 570 L 160 470 C 160 464.476562 155.523438 460 150 460 C 144.476562 460 140 464.476562 140 470 L 140 570 C 140 586.566406 153.433594 600 170 600 L 450 600 C 466.566406 600 480 586.566406 480 570 L 480 470 C 480 464.476562 475.523438 460 470 460 Z M 470 460 " style=" stroke:none;fill-rule:nonzero;fill:rgb(255%,255%,255%);fill-opacity:1;" />
<path d="M 150 140 C 155.523438 140 160 135.523438 160 130 L 160 30 C 160 24.476562 164.476562 20 170 20 L 213.40625 20 L 223.671875 43.941406 C 225.242188 47.617188 228.863281 50 232.859375 50 L 387.140625 50 C 391.136719 50 394.757812 47.617188 396.328125 43.941406 L 406.59375 20 L 450 20 C 455.523438 20 460 24.476562 460 30 L 460 130 C 460 135.523438 464.476562 140 470 140 C 475.523438 140 480 135.523438 480 130 L 480 30 C 480 13.433594 466.566406 0 450 0 L 170 0 C 153.433594 0 140 13.433594 140 30 L 140 130 C 140 135.523438 144.476562 140 150 140 Z M 384.828125 20 L 380.550781 30 L 239.449219 30 L 235.171875 20 Z M 384.828125 20 " style=" stroke:none;fill-rule:nonzero;fill:rgb(255%,255%,255%);fill-opacity:1;" />
<path d="M 210 560 C 210 565.523438 214.476562 570 220 570 L 400 570 C 405.523438 570 410 565.523438 410 560 C 410 554.476562 405.523438 550 400 550 L 220 550 C 214.476562 550 210 554.476562 210 560 Z M 210 560 " style=" stroke:none;fill-rule:nonzero;fill:rgb(255%,255%,255%);fill-opacity:1;" />
<path d="M 185.359375 403.617188 C 195.96875 403.640625 206.148438 399.429688 213.636719 391.917969 L 249 356.570312 C 260.71875 344.851562 260.71875 325.855469 249 314.140625 L 220.71875 285.859375 C 216.816406 281.957031 210.484375 281.957031 206.582031 285.859375 L 185.359375 307.070312 L 142.9375 264.648438 L 164.148438 243.429688 C 168.050781 239.527344 168.050781 233.195312 164.148438 229.292969 L 135.859375 201 C 124.144531 189.28125 105.148438 189.28125 93.429688 201 L 58.082031 236.363281 C 42.457031 251.984375 42.457031 277.308594 58.082031 292.929688 L 157.078125 391.929688 C 164.574219 399.433594 174.75 403.640625 185.359375 403.617188 Z M 72.222656 250.5 L 107.570312 215.152344 C 109.445312 213.273438 111.992188 212.21875 114.644531 212.21875 C 117.300781 212.21875 119.84375 213.273438 121.71875 215.152344 L 142.929688 236.363281 L 121.71875 257.578125 C 117.816406 261.484375 117.816406 267.816406 121.71875 271.71875 L 178.28125 328.28125 C 182.183594 332.183594 188.515625 332.183594 192.421875 328.28125 L 213.636719 307.070312 L 234.847656 328.28125 C 236.726562 330.15625 237.78125 332.699219 237.78125 335.355469 C 237.78125 338.007812 236.726562 340.554688 234.847656 342.429688 L 199.5 377.777344 C 191.6875 385.59375 179.023438 385.59375 171.210938 377.777344 L 72.210938 278.78125 C 64.40625 270.96875 64.410156 258.304688 72.222656 250.5 Z M 72.222656 250.5 " style=" stroke:none;fill-rule:nonzero;fill:rgb(255%,255%,255%);fill-opacity:1;" />
<path d="M 300 300 C 300 217.15625 232.84375 150 150 150 C 67.15625 150 0 217.15625 0 300 C 0 382.84375 67.15625 450 150 450 C 232.804688 449.90625 299.90625 382.804688 300 300 Z M 20 300 C 20 228.203125 78.203125 170 150 170 C 221.796875 170 280 228.203125 280 300 C 280 371.796875 221.796875 430 150 430 C 78.238281 429.917969 20.082031 371.761719 20 300 Z M 20 300 " style=" stroke:none;fill-rule:nonzero;fill:rgb(255%,255%,255%);fill-opacity:1;" />
<path d="M 470 150 C 387.15625 150 320 217.15625 320 300 C 320 382.84375 387.15625 450 470 450 C 552.84375 450 620 382.84375 620 300 C 619.90625 217.195312 552.804688 150.09375 470 150 Z M 470 430 C 445.304688 430 421.128906 422.910156 400.34375 409.570312 L 412.757812 353.472656 C 414.964844 343.539062 422.078125 335.414062 431.640625 331.929688 C 441.089844 343.375 455.15625 350 470 350 C 484.84375 350 498.910156 343.375 508.359375 331.929688 C 517.914062 335.414062 525.035156 343.53125 527.242188 353.460938 L 539.65625 409.570312 C 518.871094 422.910156 494.695312 430 470 430 Z M 557.179688 396.152344 L 546.765625 349.148438 C 542.363281 329.132812 526.148438 313.851562 505.898438 310.648438 C 505.851562 310.648438 505.800781 310.648438 505.75 310.648438 C 501.832031 310.410156 498.054688 312.191406 495.75 315.371094 L 495.6875 315.4375 C 490.292969 324.476562 480.539062 330.015625 470.007812 330.015625 C 459.484375 330.015625 449.726562 324.476562 444.332031 315.4375 L 444.226562 315.34375 C 443.757812 314.652344 443.199219 314.027344 442.570312 313.480469 C 442.261719 313.121094 441.929688 312.789062 441.570312 312.480469 C 440.984375 312.128906 440.371094 311.835938 439.730469 311.601562 C 439.21875 311.308594 438.679688 311.0625 438.128906 310.859375 C 437.597656 310.785156 437.0625 310.75 436.519531 310.773438 C 435.765625 310.648438 435 310.621094 434.238281 310.679688 C 434.238281 310.679688 434.140625 310.679688 434.09375 310.679688 C 413.84375 313.886719 397.621094 329.164062 393.21875 349.1875 L 382.808594 396.191406 C 342.921875 360.125 329.351562 303.226562 348.671875 253.046875 C 367.992188 202.859375 416.214844 169.757812 469.992188 169.757812 C 523.765625 169.757812 571.988281 202.859375 591.308594 253.046875 C 610.628906 303.226562 597.0625 360.125 557.167969 396.191406 Z M 557.179688 396.152344 " style=" stroke:none;fill-rule:nonzero;fill:rgb(255%,255%,255%);fill-opacity:1;" />
<path d="M 470 185 C 437.808594 184.140625 410.980469 209.476562 410 241.671875 L 410 265 C 410 268.632812 411.96875 271.976562 415.140625 273.742188 C 418.316406 275.503906 422.195312 275.40625 425.277344 273.492188 L 430 270.550781 L 430 277.597656 C 430 280.617188 430.683594 283.59375 432 286.308594 L 438.128906 298.769531 C 441.5 305.671875 448.519531 310.035156 456.203125 310 L 484 310 C 491.570312 310.03125 498.496094 305.722656 501.820312 298.921875 L 508.03125 286.289062 C 509.34375 283.585938 510.03125 280.609375 510.03125 277.597656 L 510.03125 271.9375 L 516.527344 274.371094 C 517.640625 274.78125 518.8125 274.996094 520 275 C 525.523438 275 530 270.523438 530 265 L 530 241.671875 C 529.019531 209.476562 502.191406 184.140625 470 185 Z M 484 290 L 456.136719 289.941406 L 450 277.597656 L 450 258.109375 L 458.609375 252.75 L 490 264.46875 L 490 277.46875 Z M 510 250.601562 L 461 232.300781 C 459.878906 231.882812 458.695312 231.671875 457.5 231.671875 C 455.632812 231.671875 453.804688 232.191406 452.222656 233.179688 L 440.953125 240.179688 C 440.621094 240.179688 440.34375 239.992188 440 239.992188 C 435.824219 240.003906 432.105469 242.632812 430.6875 246.558594 L 430 247 L 430 241.671875 C 431.796875 220.917969 449.171875 204.984375 470 204.984375 C 490.828125 204.984375 508.203125 220.917969 510 241.671875 Z M 510 250.601562 " style=" stroke:none;fill-rule:nonzero;fill:rgb(255%,255%,255%);fill-opacity:1;" />
</g>
</svg>