<svg height="512" viewBox="0 0 64 64" width="512" xmlns="http://www.w3.org/2000/svg" fill="rgb(255%, 255%, 255%)"><path d="m57 26h-6v-21a3 3 0 0 0 -3-3h-32a3 3 0 0 0 -3 3v21h-6a5.006 5.006 0 0 0 -5 5v26a5.006 5.006 0 0 0 5 5h50a5.006 5.006 0 0 0 5-5v-26a5.006 5.006 0 0 0 -5-5zm0 2a3 3 0 0 1 3 3v.41l-9 4.965v-8.375zm-41-24h32a1 1 0 0 1 1 1v32.479l-17 9.379-17-9.379v-32.479a1 1 0 0 1 1-1zm15.517 44.875a1 1 0 0 0 .966 0l4.5-2.48 13.603 13.605h-37.172l13.606-13.606zm-24.517-20.875h6v8.375l-9-4.965v-.41a3 3 0 0 1 3-3zm-3 29v-23.306l21.2 11.7-14.614 14.606h-3.586a3 3 0 0 1 -3-3zm53 3h-3.586l-14.614-14.611 21.2-11.695v23.306a3 3 0 0 1 -3 3z"/><path d="m23 22h18a3 3 0 0 0 3-3v-8a3 3 0 0 0 -3-3h-18a3 3 0 0 0 -3 3v8a3 3 0 0 0 3 3zm-1-11a1 1 0 0 1 1-1h18a1 1 0 0 1 1 1v8a1 1 0 0 1 -1 1h-18a1 1 0 0 1 -1-1z"/><path d="m24 12h16v2h-16z"/><path d="m24 16h16v2h-16z"/></svg>