<svg id="Capa_1" enable-background="new 0 0 512 512" height="512" viewBox="0 0 512 512" width="512" xmlns="http://www.w3.org/2000/svg"><g><path d="m305 60.333h30v30h-30z"/><path d="m365.667 60.333h30v30h-30z"/><path d="m426.333 60.333h30v30h-30z"/><path d="m311.979 263.835c0-30.867-25.112-55.979-55.979-55.979s-55.979 25.112-55.979 55.979v13.877h-23.927v147.478h159.811v-147.477h-23.927v-13.878zm-81.958 0c0-14.325 11.654-25.979 25.979-25.979s25.979 11.654 25.979 25.979v13.877h-51.957v-13.877zm75.884 131.355h-34.905v-59.953h-30v59.953h-34.905v-87.478h99.811v87.478z"/><path d="m0 0v512h512v-512zm482 124h-452v-30.667h139.187l31.151-63.333h281.662zm-315.094-94-16.395 33.333h-120.511v-33.333zm-136.906 452v-328h452v328z"/></g></svg>